<svg width="50" height="49" viewBox="0 0 50 49" fill="none" xmlns="http://www.w3.org/2000/svg">
<circle cx="47.7119" cy="46.3164" r="1.74121" transform="rotate(180 47.7119 46.3164)" fill="white"/>
<circle cx="47.7119" cy="16.7158" r="1.74121" transform="rotate(180 47.7119 16.7158)" fill="white"/>
<circle cx="47.7119" cy="31.3418" r="1.74121" transform="rotate(180 47.7119 31.3418)" fill="white"/>
<circle cx="47.7119" cy="1.74121" r="1.74121" transform="rotate(180 47.7119 1.74121)" fill="white"/>
<circle cx="32.3896" cy="46.3164" r="1.74121" transform="rotate(180 32.3896 46.3164)" fill="white"/>
<circle cx="32.3896" cy="16.7158" r="1.74121" transform="rotate(180 32.3896 16.7158)" fill="white"/>
<circle cx="32.3896" cy="31.3418" r="1.74121" transform="rotate(180 32.3896 31.3418)" fill="white"/>
<circle cx="32.3896" cy="1.74121" r="1.74121" transform="rotate(180 32.3896 1.74121)" fill="white"/>
<circle cx="17.0674" cy="46.3164" r="1.74121" transform="rotate(180 17.0674 46.3164)" fill="white"/>
<circle cx="17.0674" cy="16.7158" r="1.74121" transform="rotate(180 17.0674 16.7158)" fill="white"/>
<circle cx="17.0674" cy="31.3418" r="1.74121" transform="rotate(180 17.0674 31.3418)" fill="white"/>
<circle cx="17.0674" cy="1.74121" r="1.74121" transform="rotate(180 17.0674 1.74121)" fill="white"/>
<circle cx="1.74316" cy="46.3164" r="1.74121" transform="rotate(180 1.74316 46.3164)" fill="white"/>
<circle cx="1.74316" cy="16.7158" r="1.74121" transform="rotate(180 1.74316 16.7158)" fill="white"/>
<circle cx="1.74316" cy="31.3418" r="1.74121" transform="rotate(180 1.74316 31.3418)" fill="white"/>
<circle cx="1.74316" cy="1.74121" r="1.74121" transform="rotate(180 1.74316 1.74121)" fill="white"/>
</svg>
