<svg width="18" height="18" viewBox="0 0 18 18" fill="none" xmlns="http://www.w3.org/2000/svg">
<path d="M12.4085 0.947266H5.37149C2.5733 0.947266 0.301514 3.17092 0.301514 5.90981V12.7435C0.301514 15.5366 2.5733 17.7603 5.37149 17.7603H12.3531C15.2067 17.7603 17.4785 15.5366 17.4785 12.7977V5.90981C17.4785 3.17092 15.2067 0.947266 12.4085 0.947266ZM8.9177 13.4757C6.56279 13.4757 4.70657 11.6045 4.70657 9.35377C4.70657 7.10299 6.5905 5.23187 8.9177 5.23187C11.2172 5.23187 13.1011 7.10299 13.1011 9.35377C13.1011 11.6045 11.2449 13.4757 8.9177 13.4757ZM14.7357 5.61152C14.4587 5.90981 14.0431 6.07252 13.5721 6.07252C13.1565 6.07252 12.741 5.90981 12.4085 5.61152C12.1037 5.31322 11.9375 4.93357 11.9375 4.47257C11.9375 4.01157 12.1037 3.65904 12.4085 3.33363C12.7133 3.00821 13.1011 2.84551 13.5721 2.84551C13.9877 2.84551 14.4309 3.00821 14.7357 3.30651C15.0127 3.65904 15.2067 4.06581 15.2067 4.49969C15.179 4.93357 15.0127 5.31322 14.7357 5.61152Z" fill="#CDCED6"/>
</svg>
