<svg width="29" height="35" viewBox="0 0 29 35" fill="none" xmlns="http://www.w3.org/2000/svg">
<path d="M26.5312 21.656L25.6563 21.1638L26.6953 20.5623C27.7344 19.906 28.3359 18.8123 28.2812 17.6091C28.2266 16.406 27.625 15.3123 26.5312 14.7107L24.8906 13.781L26.6406 12.6873C27.6797 12.031 28.2812 10.9373 28.2266 9.73413C28.1719 8.53101 27.5703 7.43726 26.4766 6.83569L16.25 1.09351C15.2109 0.491943 13.9531 0.546631 12.9141 1.09351L2.41406 7.21851C1.375 7.82007 0.71875 8.91382 0.71875 10.1169C0.71875 11.3201 1.375 12.4138 2.41406 13.0154L4.10938 13.9998L2.41406 14.9841C1.375 15.5857 0.71875 16.6794 0.71875 17.8826C0.71875 19.0857 1.32031 20.1794 2.41406 20.781L3.39844 21.3279L2.46875 21.8748C1.42969 22.4763 0.773437 23.5701 0.773437 24.7732C0.773437 25.9763 1.375 27.0701 2.46875 27.6716L12.9141 33.6873C13.4609 34.0154 14.0078 34.1248 14.6094 34.1248C15.2109 34.1248 15.8125 33.9607 16.3594 33.6326L26.6953 27.2888C27.7344 26.6326 28.3359 25.5388 28.2812 24.3357C28.2266 23.2966 27.625 22.2029 26.5312 21.656ZM2.63281 10.1169C2.63281 9.57007 2.90625 9.13257 3.34375 8.85913L13.8438 2.78882C14.0625 2.67944 14.3359 2.57007 14.5547 2.57007C14.7734 2.57007 15.0469 2.62476 15.2656 2.73413L25.5469 8.47632C25.9844 8.74976 26.2578 9.18726 26.3125 9.73413C26.3125 10.281 26.0391 10.7185 25.6016 10.9919L15.3203 17.3904C14.8828 17.6638 14.2812 17.6638 13.8438 17.3904L3.39844 11.3748C2.90625 11.156 2.63281 10.6638 2.63281 10.1169ZM2.63281 17.9373C2.63281 17.3904 2.90625 16.9529 3.34375 16.6794L6.02344 15.1482L12.8594 19.0857C13.4062 19.4138 13.9531 19.5232 14.5547 19.5232C15.1562 19.5232 15.7578 19.3591 16.3047 19.031L23.0312 14.8748L25.6016 16.2966C26.0391 16.5701 26.3125 17.0076 26.3672 17.5544C26.3672 18.1013 26.0938 18.5388 25.6563 18.8123L15.3203 25.2654C14.8828 25.5388 14.2812 25.5388 13.8438 25.2654L3.39844 19.2498C2.90625 18.9763 2.63281 18.4841 2.63281 17.9373ZM25.6563 25.8123L15.3203 32.2107C14.8828 32.4841 14.2812 32.4841 13.8438 32.2107L3.39844 26.1951C2.96094 25.9216 2.6875 25.4841 2.6875 24.9373C2.6875 24.3904 2.96094 23.9529 3.39844 23.6794L5.3125 22.5857L12.8594 26.9607C13.4062 27.2888 13.9531 27.3982 14.5547 27.3982C15.1562 27.3982 15.7578 27.2341 16.3047 26.906L23.7969 22.2576L25.6563 23.2966C26.0938 23.5701 26.3672 24.0076 26.4219 24.5544C26.3672 25.0466 26.0938 25.5388 25.6563 25.8123Z" fill="white"/>
</svg>
