<svg width="129" height="25" viewBox="0 0 129 25" fill="none" xmlns="http://www.w3.org/2000/svg">
<path d="M12.978 6.364L8.496 19H4.644L0.162 6.364H3.438L6.57 15.904L9.72 6.364H12.978ZM17.3424 8.83V11.386H21.4644V13.762H17.3424V16.534H22.0044V19H14.2644V6.364H22.0044V8.83H17.3424ZM35.3067 19H32.2287L27.0807 11.206V19H24.0027V6.364H27.0807L32.2287 14.194V6.364H35.3067V19ZM37.0159 12.664C37.0159 11.416 37.2859 10.306 37.8259 9.334C38.3659 8.35 39.1159 7.588 40.0759 7.048C41.0479 6.496 42.1459 6.22 43.3699 6.22C44.8699 6.22 46.1539 6.616 47.2219 7.408C48.2899 8.2 49.0039 9.28 49.3639 10.648H45.9799C45.7279 10.12 45.3679 9.718 44.8999 9.442C44.4439 9.166 43.9219 9.028 43.3339 9.028C42.3859 9.028 41.6179 9.358 41.0299 10.018C40.4419 10.678 40.1479 11.56 40.1479 12.664C40.1479 13.768 40.4419 14.65 41.0299 15.31C41.6179 15.97 42.3859 16.3 43.3339 16.3C43.9219 16.3 44.4439 16.162 44.8999 15.886C45.3679 15.61 45.7279 15.208 45.9799 14.68H49.3639C49.0039 16.048 48.2899 17.128 47.2219 17.92C46.1539 18.7 44.8699 19.09 43.3699 19.09C42.1459 19.09 41.0479 18.82 40.0759 18.28C39.1159 17.728 38.3659 16.966 37.8259 15.994C37.2859 15.022 37.0159 13.912 37.0159 12.664ZM54.3268 8.83V11.386H58.4488V13.762H54.3268V16.534H58.9888V19H51.2488V6.364H58.9888V8.83H54.3268ZM69.3735 19.126C68.4495 19.126 67.6215 18.976 66.8895 18.676C66.1575 18.376 65.5695 17.932 65.1255 17.344C64.6935 16.756 64.4655 16.048 64.4415 15.22H67.7175C67.7655 15.688 67.9275 16.048 68.2035 16.3C68.4795 16.54 68.8395 16.66 69.2835 16.66C69.7395 16.66 70.0995 16.558 70.3635 16.354C70.6275 16.138 70.7595 15.844 70.7595 15.472C70.7595 15.16 70.6515 14.902 70.4355 14.698C70.2315 14.494 69.9735 14.326 69.6615 14.194C69.3615 14.062 68.9295 13.912 68.3655 13.744C67.5495 13.492 66.8835 13.24 66.3675 12.988C65.8515 12.736 65.4075 12.364 65.0355 11.872C64.6635 11.38 64.4775 10.738 64.4775 9.946C64.4775 8.77 64.9035 7.852 65.7555 7.192C66.6075 6.52 67.7175 6.184 69.0855 6.184C70.4775 6.184 71.5995 6.52 72.4515 7.192C73.3035 7.852 73.7595 8.776 73.8195 9.964H70.4895C70.4655 9.556 70.3155 9.238 70.0395 9.01C69.7635 8.77 69.4095 8.65 68.9775 8.65C68.6055 8.65 68.3055 8.752 68.0775 8.956C67.8495 9.148 67.7355 9.43 67.7355 9.802C67.7355 10.21 67.9275 10.528 68.3115 10.756C68.6955 10.984 69.2955 11.23 70.1115 11.494C70.9275 11.77 71.5875 12.034 72.0915 12.286C72.6075 12.538 73.0515 12.904 73.4235 13.384C73.7955 13.864 73.9815 14.482 73.9815 15.238C73.9815 15.958 73.7955 16.612 73.4235 17.2C73.0635 17.788 72.5355 18.256 71.8395 18.604C71.1435 18.952 70.3215 19.126 69.3735 19.126ZM81.4738 16.39V19H79.9078C78.7918 19 77.9218 18.73 77.2978 18.19C76.6738 17.638 76.3618 16.744 76.3618 15.508V11.512H75.1378V8.956H76.3618V6.508H79.4398V8.956H81.4558V11.512H79.4398V15.544C79.4398 15.844 79.5118 16.06 79.6558 16.192C79.7998 16.324 80.0398 16.39 80.3758 16.39H81.4738ZM93.1063 8.956V19H90.0283V17.632C89.7163 18.076 89.2903 18.436 88.7503 18.712C88.2223 18.976 87.6343 19.108 86.9863 19.108C86.2183 19.108 85.5403 18.94 84.9523 18.604C84.3643 18.256 83.9083 17.758 83.5843 17.11C83.2603 16.462 83.0983 15.7 83.0983 14.824V8.956H86.1583V14.41C86.1583 15.082 86.3323 15.604 86.6803 15.976C87.0283 16.348 87.4963 16.534 88.0843 16.534C88.6843 16.534 89.1583 16.348 89.5063 15.976C89.8543 15.604 90.0283 15.082 90.0283 14.41V8.956H93.1063ZM94.7052 13.96C94.7052 12.928 94.8972 12.022 95.2812 11.242C95.6772 10.462 96.2112 9.862 96.8832 9.442C97.5552 9.022 98.3052 8.812 99.1332 8.812C99.7932 8.812 100.393 8.95 100.933 9.226C101.485 9.502 101.917 9.874 102.229 10.342V5.68H105.307V19H102.229V17.56C101.941 18.04 101.527 18.424 100.987 18.712C100.459 19 99.8412 19.144 99.1332 19.144C98.3052 19.144 97.5552 18.934 96.8832 18.514C96.2112 18.082 95.6772 17.476 95.2812 16.696C94.8972 15.904 94.7052 14.992 94.7052 13.96ZM102.229 13.978C102.229 13.21 102.013 12.604 101.581 12.16C101.161 11.716 100.645 11.494 100.033 11.494C99.4212 11.494 98.8992 11.716 98.4672 12.16C98.0472 12.592 97.8372 13.192 97.8372 13.96C97.8372 14.728 98.0472 15.34 98.4672 15.796C98.8992 16.24 99.4212 16.462 100.033 16.462C100.645 16.462 101.161 16.24 101.581 15.796C102.013 15.352 102.229 14.746 102.229 13.978ZM109.082 7.912C108.542 7.912 108.098 7.756 107.75 7.444C107.414 7.12 107.246 6.724 107.246 6.256C107.246 5.776 107.414 5.38 107.75 5.068C108.098 4.744 108.542 4.582 109.082 4.582C109.61 4.582 110.042 4.744 110.378 5.068C110.726 5.38 110.9 5.776 110.9 6.256C110.9 6.724 110.726 7.12 110.378 7.444C110.042 7.756 109.61 7.912 109.082 7.912ZM110.612 8.956V19H107.534V8.956H110.612ZM117.415 19.144C116.431 19.144 115.543 18.934 114.751 18.514C113.971 18.094 113.353 17.494 112.897 16.714C112.453 15.934 112.231 15.022 112.231 13.978C112.231 12.946 112.459 12.04 112.915 11.26C113.371 10.468 113.995 9.862 114.787 9.442C115.579 9.022 116.467 8.812 117.451 8.812C118.435 8.812 119.323 9.022 120.115 9.442C120.907 9.862 121.531 10.468 121.987 11.26C122.443 12.04 122.671 12.946 122.671 13.978C122.671 15.01 122.437 15.922 121.969 16.714C121.513 17.494 120.883 18.094 120.079 18.514C119.287 18.934 118.399 19.144 117.415 19.144ZM117.415 16.48C118.003 16.48 118.501 16.264 118.909 15.832C119.329 15.4 119.539 14.782 119.539 13.978C119.539 13.174 119.335 12.556 118.927 12.124C118.531 11.692 118.039 11.476 117.451 11.476C116.851 11.476 116.353 11.692 115.957 12.124C115.561 12.544 115.363 13.162 115.363 13.978C115.363 14.782 115.555 15.4 115.939 15.832C116.335 16.264 116.827 16.48 117.415 16.48Z" fill="#F8F9FA"/>
<path d="M125.744 19.144C125.204 19.144 124.76 18.988 124.412 18.676C124.076 18.352 123.908 17.956 123.908 17.488C123.908 17.008 124.076 16.606 124.412 16.282C124.76 15.958 125.204 15.796 125.744 15.796C126.272 15.796 126.704 15.958 127.04 16.282C127.388 16.606 127.562 17.008 127.562 17.488C127.562 17.956 127.388 18.352 127.04 18.676C126.704 18.988 126.272 19.144 125.744 19.144Z" fill="#DDBEA9"/>
</svg>
