<?xml version="1.0" encoding="utf-8"?>
<!-- Uploaded to: SVG Repo, www.svgrepo.com, Generator: SVG Repo Mixer Tools -->
<svg width="800px" height="800px" viewBox="0 0 24 24" xmlns="http://www.w3.org/2000/svg" xmlns:xlink="http://www.w3.org/1999/xlink">
  <defs>
    <path id="share-a" d="M11,16 C10.4477153,16 10,15.5522847 10,15 C10,14.4477153 10.4477153,14 11,14 C11.5522847,14 12,14.4477153 12,15 C12,15.5522847 11.5522847,16 11,16 Z M11,2 C10.4477153,2 10,1.55228475 10,1 C10,0.44771525 10.4477153,0 11,0 C11.5522847,0 12,0.44771525 12,1 C12,1.55228475 11.5522847,2 11,2 Z M1,9 C0.44771525,9 0,8.55228475 0,8 C0,7.44771525 0.44771525,7 1,7 C1.55228475,7 2,7.44771525 2,8 C2,8.55228475 1.55228475,9 1,9 Z"/>
    <path id="share-c" d="M7.82318826,9.8202773 C7.9381244,10.1931897 8,10.5893689 8,11 C8,11.4119212 7.93773497,11.8092997 7.82210333,12.183237 L11.6565868,14.7579732 C12.3151594,14.2811117 13.1247511,14 14,14 C16.209139,14 18,15.790861 18,18 C18,20.209139 16.209139,22 14,22 C11.790861,22 10,20.209139 10,18 C10,17.394697 10.1344502,16.8207965 10.3751156,16.3065336 L6.76991906,13.8857564 C6.05114949,14.5758499 5.07510753,15 4,15 C1.790861,15 0,13.209139 0,11 C0,8.790861 1.790861,7 4,7 C5.07650335,7 6.05368373,7.4252522 6.77271732,8.11693277 L10.3838863,5.71208248 C10.1377191,5.19306831 10,4.61261716 10,4 C10,1.790861 11.790861,0 14,0 C16.209139,0 18,1.790861 18,4 C18,6.209139 16.209139,8 14,8 C13.1328561,8 12.3301591,7.72407052 11.6749212,7.25522396 L7.82318826,9.8202773 Z M14,6 C15.1045695,6 16,5.1045695 16,4 C16,2.8954305 15.1045695,2 14,2 C12.8954305,2 12,2.8954305 12,4 C12,5.1045695 12.8954305,6 14,6 Z M14,20 C15.1045695,20 16,19.1045695 16,18 C16,16.8954305 15.1045695,16 14,16 C12.8954305,16 12,16.8954305 12,18 C12,19.1045695 12.8954305,20 14,20 Z M4,13 C5.1045695,13 6,12.1045695 6,11 C6,9.8954305 5.1045695,9 4,9 C2.8954305,9 2,9.8954305 2,11 C2,12.1045695 2.8954305,13 4,13 Z"/>
  </defs>
  <g fill="none" fill-rule="evenodd" transform="translate(2 1)">
    <g transform="translate(3 3)">
      <mask id="share-b" fill="#ffffff">
        <use xlink:href="#share-a"/>
      </mask>
      <use fill="#D8D8D8" xlink:href="#share-a"/>
      <g fill="#FFA0A0" mask="url(#share-b)">
        <rect width="24" height="24" transform="translate(-5 -4)"/>
      </g>
    </g>
    <mask id="share-d" fill="#ffffff">
      <use xlink:href="#share-c"/>
    </mask>
    <use fill="#000000" fill-rule="nonzero" xlink:href="#share-c"/>
    <g fill="#7600FF" mask="url(#share-d)">
      <rect width="24" height="24" transform="translate(-2 -1)"/>
    </g>
  </g>
</svg>