<?xml version="1.0" encoding="utf-8"?>
<!-- Uploaded to: SVG Repo, www.svgrepo.com, Generator: SVG Repo Mixer Tools -->
<svg width="800px" height="800px" viewBox="0 0 24 24" xmlns="http://www.w3.org/2000/svg" xmlns:xlink="http://www.w3.org/1999/xlink">
  <defs>
    <polygon id="tablet-a" points="0 0 0 4 12 4 12 0"/>
    <path id="tablet-c" d="M2,0 L14,0 C15.1045695,0 16,0.976833273 16,2.18181818 L16,21.8181818 C16,23.0231667 15.1045695,24 14,24 L2,24 C0.8954305,24 0,23.0231667 0,21.8181818 L0,2.18181818 C0,0.976833273 0.8954305,0 2,0 Z M2,2 L2,22 L14,22 L14,2 L2,2 Z M8,21 C7.44771525,21 7,20.5522847 7,20 C7,19.4477153 7.44771525,19 8,19 C8.55228475,19 9,19.4477153 9,20 C9,20.5522847 8.55228475,21 8,21 Z M6.5,5 C6.22385763,5 6,4.77614237 6,4.5 C6,4.22385763 6.22385763,4 6.5,4 L9.5,4 C9.77614237,4 10,4.22385763 10,4.5 C10,4.77614237 9.77614237,5 9.5,5 L6.5,5 Z"/>
  </defs>
  <g fill="none" fill-rule="evenodd" transform="translate(4)">
    <g transform="translate(2 18)">
      <mask id="tablet-b" fill="#ffffff">
        <use xlink:href="#tablet-a"/>
      </mask>
      <use fill="#D8D8D8" xlink:href="#tablet-a"/>
      <g fill="#FFA0A0" mask="url(#tablet-b)">
        <rect width="24" height="24" transform="translate(-6 -18)"/>
      </g>
    </g>
    <mask id="tablet-d" fill="#ffffff">
      <use xlink:href="#tablet-c"/>
    </mask>
    <use fill="#000000" fill-rule="nonzero" xlink:href="#tablet-c"/>
    <g fill="#7600FF" mask="url(#tablet-d)">
      <rect width="24" height="24" transform="translate(-4)"/>
    </g>
  </g>
</svg>