<svg width="35" height="31" viewBox="0 0 35 31" fill="none" xmlns="http://www.w3.org/2000/svg">
<path d="M4.04687 13.5859C4.21093 13.5859 4.375 13.5859 4.48437 13.5313L10.5547 11.3984C11.0469 11.2344 11.3203 10.6875 11.1562 10.1953C10.9922 9.70313 10.4453 9.42969 9.95312 9.59375L6.28906 10.9063C8.09375 5.92969 12.8516 2.53906 18.375 2.53906C24.2266 2.53906 29.3672 6.42188 30.7891 12.0547C30.8984 12.5469 31.4453 12.875 31.9375 12.7656C32.4297 12.6563 32.7578 12.1094 32.6484 11.6172C31.0078 5.16406 25.1016 0.679688 18.375 0.679688C11.8125 0.679688 6.125 4.89063 4.26562 11.0156L2.57031 6.25781C2.40625 5.76563 1.85937 5.49219 1.36719 5.65625C0.874998 5.82031 0.60156 6.36719 0.765623 6.85938L2.84375 12.8203C3.00781 13.2578 3.55468 13.5859 4.04687 13.5859Z" fill="white"/>
<path d="M34.2344 25.2891L31.9922 19.3828C31.8828 19.0547 31.6094 18.7813 31.2812 18.6719C30.9531 18.5625 30.625 18.5078 30.2969 18.6719L24.2812 20.9688C23.7891 21.1328 23.5156 21.7344 23.7344 22.2266C23.8984 22.7188 24.5 22.9922 24.9922 22.7735L28.7109 21.3516C26.6328 25.6719 22.2031 28.5157 17.1719 28.5157C11.6484 28.5157 6.78125 25.0703 5.08593 19.9297C4.86718 19.4375 4.32031 19.1641 3.82812 19.3282C3.33594 19.4922 3.0625 20.0391 3.22656 20.5313C5.19531 26.4375 10.7734 30.4297 17.1172 30.4297C23.1328 30.4297 28.4922 26.875 30.6797 21.461L32.4297 26C32.5937 26.3828 32.9219 26.6016 33.3047 26.6016C33.4141 26.6016 33.5234 26.6016 33.6328 26.5469C34.1797 26.3282 34.4531 25.7813 34.2344 25.2891Z" fill="white"/>
</svg>
