<svg width="35" height="35" viewBox="0 0 35 35" fill="none" xmlns="http://www.w3.org/2000/svg">
<path d="M17.5 7.875C8.20312 7.875 0.65625 16.0781 0.65625 26.1406C0.65625 26.6875 1.09375 27.125 1.64062 27.125H33.3594C33.9062 27.125 34.3437 26.6875 34.3437 26.1406C34.3437 16.0781 26.7969 7.875 17.5 7.875ZM19.4687 25.2109L17.9922 20.5078C17.8281 20.0156 17.1719 20.0156 17.0078 20.5078L15.5312 25.2109H2.625C3.0625 16.625 9.57031 9.78906 17.5 9.78906C25.4297 9.78906 31.9375 16.625 32.375 25.2109H19.4687V25.2109Z" fill="white"/>
<path d="M17.5 13.7812C16.9531 13.7812 16.5156 14.2187 16.5156 14.7656V16.1875C16.5156 16.7344 16.9531 17.1719 17.5 17.1719C18.0469 17.1719 18.4844 16.7344 18.4844 16.1875V14.7656C18.4844 14.2187 18.0469 13.7812 17.5 13.7812Z" fill="white"/>
<path d="M25.8672 17.8828L24.9922 18.8125C24.6094 19.1953 24.6094 19.7969 24.9922 20.1797C25.1563 20.3438 25.4297 20.4531 25.6484 20.4531C25.9219 20.4531 26.1406 20.3438 26.3594 20.1797L27.2344 19.25C27.6172 18.8672 27.6172 18.2656 27.2344 17.8828C26.8516 17.5 26.25 17.5 25.8672 17.8828Z" fill="white"/>
<path d="M9.13281 17.8828C8.80468 17.5 8.14843 17.4453 7.76562 17.8281C7.38281 18.1562 7.32812 18.8125 7.71093 19.1953L8.53125 20.125C8.69531 20.3437 8.96874 20.4531 9.24218 20.4531C9.46093 20.4531 9.67968 20.3984 9.89843 20.2344C10.2812 19.9062 10.3359 19.25 9.95312 18.8672L9.13281 17.8828Z" fill="white"/>
</svg>
