<svg width="13" height="11" viewBox="0 0 13 11" fill="none" xmlns="http://www.w3.org/2000/svg">
<g clip-path="url(#clip0_121_55916)">
<path fill-rule="evenodd" clip-rule="evenodd" d="M4.92835 1.64807L1.34927 5.22748C1.12964 5.44713 1.12964 5.80326 1.34927 6.02291L4.92835 9.60235C5.14798 9.822 5.50408 9.822 5.7237 9.60235C5.94333 9.3827 5.94333 9.02657 5.7237 8.80692L3.10471 6.18765L11.4952 6.18765C11.8058 6.18765 12.0576 5.93583 12.0576 5.62519C12.0576 5.31456 11.8058 5.06274 11.4952 5.06274L3.10471 5.06274L5.7237 2.44346C5.94333 2.2238 5.94333 1.86773 5.7237 1.64807C5.50408 1.42841 5.14798 1.42841 4.92835 1.64807Z" fill="#637381"/>
</g>
<defs>
<clipPath id="clip0_121_55916">
<rect width="11.248" height="9.74922" fill="white" transform="translate(12.2451 10.5) rotate(180)"/>
</clipPath>
</defs>
</svg>
