<svg width="65" height="25" viewBox="0 0 65 25" fill="none" xmlns="http://www.w3.org/2000/svg">
<path d="M12.978 6.364L8.496 19H4.644L0.162 6.364H3.438L6.57 15.904L9.72 6.364H12.978ZM17.3424 8.83V11.386H21.4644V13.762H17.3424V16.534H22.0044V19H14.2644V6.364H22.0044V8.83H17.3424ZM35.3067 19H32.2287L27.0807 11.206V19H24.0027V6.364H27.0807L32.2287 14.194V6.364H35.3067V19ZM37.0159 12.664C37.0159 11.416 37.2859 10.306 37.8259 9.334C38.3659 8.35 39.1159 7.588 40.0759 7.048C41.0479 6.496 42.1459 6.22 43.3699 6.22C44.8699 6.22 46.1539 6.616 47.2219 7.408C48.2899 8.2 49.0039 9.28 49.3639 10.648H45.9799C45.7279 10.12 45.3679 9.718 44.8999 9.442C44.4439 9.166 43.9219 9.028 43.3339 9.028C42.3859 9.028 41.6179 9.358 41.0299 10.018C40.4419 10.678 40.1479 11.56 40.1479 12.664C40.1479 13.768 40.4419 14.65 41.0299 15.31C41.6179 15.97 42.3859 16.3 43.3339 16.3C43.9219 16.3 44.4439 16.162 44.8999 15.886C45.3679 15.61 45.7279 15.208 45.9799 14.68H49.3639C49.0039 16.048 48.2899 17.128 47.2219 17.92C46.1539 18.7 44.8699 19.09 43.3699 19.09C42.1459 19.09 41.0479 18.82 40.0759 18.28C39.1159 17.728 38.3659 16.966 37.8259 15.994C37.2859 15.022 37.0159 13.912 37.0159 12.664ZM54.3268 8.83V11.386H58.4488V13.762H54.3268V16.534H58.9888V19H51.2488V6.364H58.9888V8.83H54.3268Z" fill="#495057"/>
<path d="M62.4271 19.144C61.8871 19.144 61.4431 18.988 61.0951 18.676C60.7591 18.352 60.5911 17.956 60.5911 17.488C60.5911 17.008 60.7591 16.606 61.0951 16.282C61.4431 15.958 61.8871 15.796 62.4271 15.796C62.9551 15.796 63.3871 15.958 63.7231 16.282C64.0711 16.606 64.2451 17.008 64.2451 17.488C64.2451 17.956 64.0711 18.352 63.7231 18.676C63.3871 18.988 62.9551 19.144 62.4271 19.144Z" fill="#DDBEA9"/>
</svg>
