<svg width="378" height="612" viewBox="0 0 378 612" fill="none" xmlns="http://www.w3.org/2000/svg">
<path d="M58.4989 404.754C44.0989 375.054 4.16561 380.673 -14.0011 387.195C-32.1677 458.1 -32.4871 581.841 -14.0011 627.002C8.99936 683.191 71.5 644.561 58.4989 599.911C52.8553 580.528 26.9989 550.244 38.9989 518.637C50.9989 487.031 76.4989 441.879 58.4989 404.754Z" fill="white" fill-opacity="0.06"/>
<path d="M280.873 74.7487C251.703 54.3102 259.42 11.2655 261.427 -7.93432L401.717 -13.0439C417.15 54.3102 437.924 188.74 397.55 187.625C347.082 186.231 330.179 165.278 328.562 139.316C326.711 109.587 312.124 96.6453 280.873 74.7487Z" fill="white" fill-opacity="0.06"/>
</svg>
