<svg width="35" height="33" viewBox="0 0 35 33" fill="none" xmlns="http://www.w3.org/2000/svg">
<path d="M10.7734 13.3281H3.82813C2.07813 13.3281 0.65625 11.9063 0.65625 10.1562V3.21094C0.65625 1.46094 2.07813 0.0390625 3.82813 0.0390625H10.7734C12.5234 0.0390625 13.9453 1.46094 13.9453 3.21094V10.1562C13.9453 11.9063 12.5234 13.3281 10.7734 13.3281ZM3.82813 1.95312C3.17188 1.95312 2.57031 2.5 2.57031 3.21094V10.1562C2.57031 10.8125 3.11719 11.4141 3.82813 11.4141H10.7734C11.4297 11.4141 12.0313 10.8672 12.0313 10.1562V3.21094C12.0313 2.55469 11.4844 1.95312 10.7734 1.95312H3.82813Z" fill="white"/>
<path d="M31.1719 13.3281H24.2266C22.4766 13.3281 21.0547 11.9063 21.0547 10.1562V3.21094C21.0547 1.46094 22.4766 0.0390625 24.2266 0.0390625H31.1719C32.9219 0.0390625 34.3437 1.46094 34.3437 3.21094V10.1562C34.3437 11.9063 32.9219 13.3281 31.1719 13.3281ZM24.2266 1.95312C23.5703 1.95312 22.9688 2.5 22.9688 3.21094V10.1562C22.9688 10.8125 23.5156 11.4141 24.2266 11.4141H31.1719C31.8281 11.4141 32.4297 10.8672 32.4297 10.1562V3.21094C32.4297 2.55469 31.8828 1.95312 31.1719 1.95312H24.2266Z" fill="white"/>
<path d="M10.7734 32.9609H3.82813C2.07813 32.9609 0.65625 31.5391 0.65625 29.7891V22.8438C0.65625 21.0938 2.07813 19.6719 3.82813 19.6719H10.7734C12.5234 19.6719 13.9453 21.0938 13.9453 22.8438V29.7891C13.9453 31.5391 12.5234 32.9609 10.7734 32.9609ZM3.82813 21.5859C3.17188 21.5859 2.57031 22.1328 2.57031 22.8438V29.7891C2.57031 30.4453 3.11719 31.0469 3.82813 31.0469H10.7734C11.4297 31.0469 12.0313 30.5 12.0313 29.7891V22.8438C12.0313 22.1875 11.4844 21.5859 10.7734 21.5859H3.82813V21.5859Z" fill="white"/>
<path d="M31.1719 32.9609H24.2266C22.4766 32.9609 21.0547 31.5391 21.0547 29.7891V22.8438C21.0547 21.0938 22.4766 19.6719 24.2266 19.6719H31.1719C32.9219 19.6719 34.3437 21.0938 34.3437 22.8438V29.7891C34.3437 31.5391 32.9219 32.9609 31.1719 32.9609ZM24.2266 21.5859C23.5703 21.5859 22.9688 22.1328 22.9688 22.8438V29.7891C22.9688 30.4453 23.5156 31.0469 24.2266 31.0469H31.1719C31.8281 31.0469 32.4297 30.5 32.4297 29.7891V22.8438C32.4297 22.1875 31.8828 21.5859 31.1719 21.5859H24.2266V21.5859Z" fill="white"/>
</svg>
